<svg xmlns="http://www.w3.org/2000/svg"  viewBox="0 0 64 64" width="64px" height="64px"><radialGradient id="BvE_ydx0OXbVX6OMm0kiya" cx="32.5" cy="31.5" r="30.516" gradientUnits="userSpaceOnUse"><stop offset="0" stop-color="#ecd5a0"/><stop offset=".106" stop-color="#efdaa9"/><stop offset=".437" stop-color="#f6e6c1"/><stop offset=".744" stop-color="#faedd0"/><stop offset="1" stop-color="#fdf0d5"/></radialGradient><path fill="url(#BvE_ydx0OXbVX6OMm0kiya)" d="M64,12.984L64,12.984c0-1.666-1.35-3.016-3.016-3.016h-10.5C49.664,9.967,49,9.303,49,8.484v0	C49,7.664,49.664,7,50.484,7H56.5C57.881,7,59,5.881,59,4.5v0C59,3.119,57.881,2,56.5,2h-46C9.119,2,8,3.119,8,4.5v0	C8,5.881,9.119,7,10.5,7h2C13.881,7,15,8.119,15,9.5v0c0,1.381-1.119,2.5-2.5,2.5H7c-1.657,0-3,1.343-3,3v0c0,1.657,1.343,3,3,3h10	c1.657,0,3,1.343,3,3v0c0,1.657-1.343,3-3,3h-5.5C9.567,24,8,25.567,8,27.5v0c0,1.933,1.567,3.5,3.5,3.5h9	c0.828,0,1.5,0.672,1.5,1.5l0,0c0,0.828-0.672,1.5-1.5,1.5h-17C2.119,34,1,35.119,1,36.5v0C1,37.881,2.119,39,3.5,39h2	C6.881,39,8,40.119,8,41.5v0C8,42.881,6.881,44,5.5,44H4c-1.657,0-3,1.343-3,3v0c0,1.657,1.343,3,3,3h4.5c1.381,0,2.5,1.119,2.5,2.5	v0c0,1.381-1.119,2.5-2.5,2.5H8c-1.657,0-3,1.343-3,3v0c0,1.657,1.343,3,3,3h48c1.657,0,3-1.343,3-3v0c0-1.657-1.343-3-3-3h-0.5	c-1.381,0-2.5-1.119-2.5-2.5v0c0-1.381,1.119-2.5,2.5-2.5H59c1.657,0,3-1.343,3-3v0c0-1.657-1.343-3-3-3H47.5	c-2.485,0-4.5-2.015-4.5-4.5v0c0-2.485,2.015-4.5,4.5-4.5H55c1.657,0,3-1.343,3-3v0c0-1.657-1.343-3-3-3h0c-1.105,0-2-0.895-2-2v0	c0-1.105,0.895-2,2-2h5.5c1.381,0,2.5-1.119,2.5-2.5v0c0-1.381-1.119-2.5-2.5-2.5H59c-1.105,0-2-0.895-2-2v0c0-1.105,0.895-2,2-2	h1.984C62.65,16,64,14.65,64,12.984z"/><linearGradient id="BvE_ydx0OXbVX6OMm0kiyb" x1="32.331" x2="32.331" y1="57.272" y2="6.694" gradientUnits="userSpaceOnUse"><stop offset="0" stop-color="#76818b"/><stop offset="1" stop-color="#7f8a96"/></linearGradient><path fill="url(#BvE_ydx0OXbVX6OMm0kiyb)" d="M47.842,8.651 c-1.002-0.573-2.256-0.867-3.657-0.867h-0.017l-0.017,0.001c-5.919,0.263-14.816,7.768-21.636,18.25 c-5.459,8.379-8.642,17.013-8.512,23.093c0,2.901,1.164,5.406,3.194,6.856C18.029,56.65,19.114,57,20.389,57 c2.095,0,4.409-1.072,6.875-3.186c0.385-0.286,0.661-0.813,0.701-1.377c0.038-0.541-0.142-1.062-0.497-1.438 c-0.352-0.44-0.916-0.702-1.519-0.702c-0.496,0-0.956,0.18-1.3,0.507c-2.36,1.898-3.921,2.104-4.484,2.104 c-0.319,0-0.484-0.062-0.52-0.086l-0.104-0.107l-0.052-0.052l-0.062-0.041c-0.915-0.61-1.419-1.901-1.419-3.634 c-0.122-5.262,2.902-13.207,7.891-20.752c6.856-10.529,14.614-16.33,18.434-16.446c0.728,0,1.029,0.143,1.189,0.25l0.021,0.014 l0.022,0.013c1.368,0.782,1.356,3.04-0.03,5.492c-0.566,0.943-0.233,2.165,0.768,2.766c0.309,0.185,0.658,0.283,1.01,0.283 c0.718,0,1.381-0.389,1.772-1.042C51.957,14.372,50.527,10.347,47.842,8.651z M25.95,51.047c0.018,0,0.036,0.005,0.055,0.006 c-0.03-0.001-0.059-0.001-0.089,0C25.928,51.053,25.939,51.047,25.95,51.047z M26.777,53.244c0.125-0.094,0.227-0.219,0.301-0.362 C27.004,53.025,26.902,53.15,26.777,53.244c-0.329,0.282-0.65,0.54-0.963,0.776C26.127,53.784,26.448,53.526,26.777,53.244z M19.137,53.369c0.037,0.037,0.086,0.071,0.142,0.103C19.223,53.44,19.174,53.406,19.137,53.369l-0.063-0.063L19.137,53.369z M47.314,19.857c-0.017,0-0.034-0.006-0.051-0.007c0.031,0.001,0.062,0.002,0.092,0.001C47.341,19.851,47.328,19.857,47.314,19.857 z M48.443,19.179c0,0-0.001,0.001-0.001,0.001C48.442,19.18,48.443,19.179,48.443,19.179c0.329-0.595,0.597-1.172,0.81-1.73 C49.04,18.007,48.772,18.584,48.443,19.179z"/><linearGradient id="BvE_ydx0OXbVX6OMm0kiyc" x1="32.259" x2="32.259" y1="57.272" y2="6.694" gradientUnits="userSpaceOnUse"><stop offset="0" stop-color="#76818b"/><stop offset="1" stop-color="#7f8a96"/></linearGradient><path fill="url(#BvE_ydx0OXbVX6OMm0kiyc)" d="M32.616,21.101 c-1.513-0.126-2.926-0.126-4.174-0.126c-15.382,0-24.283,3.463-24.42,9.5c-0.288,3.58,3.684,6.786,7.497,8.233 c0.207,0.083,0.439,0.127,0.678,0.127c0.819,0,1.606-0.535,1.912-1.301c0.399-0.998-0.136-2.19-1.169-2.603 c-3.042-1.141-5.118-3.329-5.042-4.251c0.094-2.782,7.324-5.7,20.543-5.7c1.272,0,2.474,0,3.945,0.123 c12.919,0.718,21.064,3.725,23.414,6.386c0.497,0.563,0.732,1.095,0.698,1.581l-0.002,0.026v0.026c0,1.36-2.067,3.174-4.914,4.313 c-1.017,0.407-1.552,1.568-1.187,2.556c0.216,0.762,0.949,1.27,1.841,1.27h0.501h0.142l0.133-0.052 c4.483-1.766,7.352-4.804,7.488-7.929C60.93,25.439,45.748,21.817,32.616,21.101z M12.224,38.08c-0.009,0-0.017,0.004-0.026,0.004 c-0.012,0-0.024-0.007-0.037-0.007C12.183,38.078,12.203,38.081,12.224,38.08z M7.152,30.617c0.007-0.22,0.044-0.436,0.11-0.649 C7.196,30.18,7.159,30.397,7.152,30.617c-0.023,0.277,0.048,0.585,0.197,0.908C7.2,31.202,7.129,30.894,7.152,30.617z"/><linearGradient id="BvE_ydx0OXbVX6OMm0kiyd" x1="31.971" x2="31.971" y1="57.272" y2="6.694" gradientUnits="userSpaceOnUse"><stop offset="0" stop-color="#76818b"/><stop offset="1" stop-color="#7f8a96"/></linearGradient><path fill="url(#BvE_ydx0OXbVX6OMm0kiyd)" d="M42.562,29.024 c-0.282-0.706-0.998-1.175-1.817-1.175c-0.268,0-0.53,0.05-0.778,0.15c-0.498,0.199-0.877,0.593-1.067,1.11 c-0.177,0.482-0.169,1.012,0.023,1.493c5.245,12.282,5.645,21.451,3.935,23.353c-0.231,0.06-0.486,0.09-0.76,0.09 c-0.468,0-0.969-0.088-1.49-0.261c-3.887-1.296-10.385-7.489-15.467-18.025c-3.232-6.703-4.807-14.991-4.935-20.232 c-0.145-3.631,0.747-4.651,1.193-4.932c0.055-0.019,0.109-0.038,0.16-0.057c0.25-0.09,0.368-0.129,0.528-0.129 c0.262,0,1.72,0.152,4.73,3.162c0.384,0.384,0.884,0.595,1.407,0.595c0.523,0,1.023-0.211,1.407-0.595 c0.789-0.789,0.789-2.025,0-2.814c-2.809-2.931-5.272-4.361-7.52-4.361c-0.108,0-0.215,0.003-0.321,0.01c-0.002,0-0.004,0-0.006,0 c-0.722,0-1.425,0.281-2.105,0.553l-0.037,0.015l-0.035,0.019c-2.393,1.267-3.539,4.152-3.405,8.576 c0.125,6.628,2.268,15.206,5.459,21.844c4.758,10.029,11.864,18.078,17.693,20.039C40.215,57.815,41.147,58,42.124,58 c2.126,0,2.955-0.651,2.955-0.651C50.121,53.568,47.309,40.016,42.562,29.024z M40.738,28.601c0.003,0,0.005-0.002,0.008-0.002 c0.142,0,0.28,0.029,0.412,0.073C41.023,28.628,40.882,28.6,40.738,28.601z M22.109,7.146c0.086,0,0.177,0.016,0.265,0.021 c-0.181-0.01-0.364-0.024-0.539-0.013C21.926,7.148,22.017,7.146,22.109,7.146z M44.629,56.749L44.629,56.749 c0.211-0.159,0.407-0.338,0.588-0.538C45.036,56.411,44.841,56.591,44.629,56.749z M46.427,43.962 c-0.234-1.318-0.537-2.685-0.897-4.077C45.891,41.277,46.193,42.644,46.427,43.962z"/><linearGradient id="BvE_ydx0OXbVX6OMm0kiye" x1="32" x2="32" y1="57.272" y2="6.694" gradientUnits="userSpaceOnUse"><stop offset="0" stop-color="#76818b"/><stop offset="1" stop-color="#7f8a96"/></linearGradient><ellipse cx="32" cy="32.004" fill="url(#BvE_ydx0OXbVX6OMm0kiye)" rx="4" ry="4.003"/><linearGradient id="BvE_ydx0OXbVX6OMm0kiyf" x1="22.25" x2="22.25" y1="44.698" y2="6.765" gradientUnits="userSpaceOnUse"><stop offset="0" stop-color="#76818b"/><stop offset="1" stop-color="#7f8a96"/></linearGradient><ellipse cx="22.25" cy="25.747" fill="url(#BvE_ydx0OXbVX6OMm0kiyf)" rx="3" ry="3.003"/></svg>