<svg width="35" height="35" viewBox="0 0 35 35" fill="none" xmlns="http://www.w3.org/2000/svg">
<path d="M16.634 1.5C17.0189 0.833332 17.9811 0.833333 18.366 1.5L31.7894 24.75C32.1743 25.4167 31.6932 26.25 30.9234 26.25H4.0766C3.3068 26.25 2.82568 25.4167 3.21058 24.75L16.634 1.5Z" fill="#F35555"/>
<path d="M16.634 4.5C17.0189 3.83333 17.9811 3.83333 18.366 4.5L29.1913 23.25C29.5762 23.9167 29.0951 24.75 28.3253 24.75H6.67468C5.90488 24.75 5.42376 23.9167 5.80866 23.25L16.634 4.5Z" fill="black" fill-opacity="0.78"/>
<path d="M18.1609 18.2109H16.2547L15.8562 10.5781H18.5594L18.1609 18.2109ZM15.825 20.8828C15.825 20.3932 15.9578 20.0495 16.2234 19.8516C16.4943 19.6536 16.8198 19.5547 17.2 19.5547C17.5698 19.5547 17.8875 19.6536 18.1531 19.8516C18.424 20.0495 18.5594 20.3932 18.5594 20.8828C18.5594 21.3516 18.424 21.6901 18.1531 21.8984C17.8875 22.1068 17.5698 22.2109 17.2 22.2109C16.8198 22.2109 16.4943 22.1068 16.2234 21.8984C15.9578 21.6901 15.825 21.3516 15.825 20.8828Z" fill="white"/>
</svg>
