<svg width="26" height="26" viewBox="0 0 26 26" fill="none" xmlns="http://www.w3.org/2000/svg">
<circle cx="13" cy="13" r="13" fill="#DFCA1F" fill-opacity="0.8"/>
<circle cx="13" cy="13" r="10.92" fill="black" fill-opacity="0.78"/>
<path d="M14.3875 10.2656V19H12.0047V10.2656H14.3875ZM13.2 6.84375C13.5542 6.84375 13.8589 6.92708 14.1141 7.09375C14.3693 7.25521 14.4969 7.5599 14.4969 8.00781C14.4969 8.45052 14.3693 8.75781 14.1141 8.92969C13.8589 9.09635 13.5542 9.17969 13.2 9.17969C12.8406 9.17969 12.5333 9.09635 12.2781 8.92969C12.0281 8.75781 11.9031 8.45052 11.9031 8.00781C11.9031 7.5599 12.0281 7.25521 12.2781 7.09375C12.5333 6.92708 12.8406 6.84375 13.2 6.84375Z" fill="white"/>
</svg>
